# xmcd CD database file
#
# Track frame offsets:
#	150
#	8954
#	22853
#	30923
#	39662
#	50610
#	60365
#	75944
#	87718
#	100364
#	116046
#	129366
#	138721
#	150423
#	156850
#	171858
#	181657
#	187918
#	196055
#	213064
#
# Disc length: 2982 seconds
#
# Revision: 2
# Processed by: cddbd v1.5.2PL0 Copyright (c) Steve Scherf et al.
# Submitted via: CDex 1.70beta2
#
DISCID=f20ba414
DTITLE=Various Artist - Hardcore Label Sampler Vol.02
DYEAR=2004
DGENRE=Hardcore
TTITLE0=No Turning Back - Leave The Past Behind
TTITLE1=Rag Men - Warrior Soul
TTITLE2=Black Friday - Kill This Dream
TTITLE3=Madball - For My Enemies
TTITLE4=Born From Pain - Rise From Ruin
TTITLE5=The Promise - The Kiss Off
TTITLE6=Zero Mentality - Nicht Mehr
TTITLE7=Knuckledust - Sick Life
TTITLE8=Redline - Portrait Of A Mirror Image
TTITLE9=Maypole - Family Now
TTITLE10=Murderer's Row - We Trudge Alone
TTITLE11=The Set Up - Wireless
TTITLE12=World Collapse - The Second Life
TTITLE13=Internal Affairs - You Don't Know Me
TTITLE14=The Break In - Strength In Numbers
TTITLE15=Dead Reckoning - Hate Comes Easy
TTITLE16=Will to Live - Self Sacrifice and Deceit
TTITLE17=For the Glory - Hate comes Easy
TTITLE18=Final Prayer - Everyman My Enemy
TTITLE19=Barcode - Showdown
EXTD=--P1NKY--- YEAR: 2004
EXTT0=
EXTT1=
EXTT2=
EXTT3=
EXTT4=
EXTT5=
EXTT6=
EXTT7=
EXTT8=
EXTT9=
EXTT10=
EXTT11=
EXTT12=
EXTT13=
EXTT14=
EXTT15=
EXTT16=
EXTT17=
EXTT18=
EXTT19=
PLAYORDER=
